<?xml version="1.0" standalone="no"?>
<!DOCTYPE svg PUBLIC "-//W3C//DTD SVG 20010904//EN"
 "http://www.w3.org/TR/2001/REC-SVG-20010904/DTD/svg10.dtd">
<svg version="1.0" xmlns="http://www.w3.org/2000/svg"
 width="1339.000000pt" height="94.000000pt" viewBox="0 0 1339.000000 94.000000"
 preserveAspectRatio="xMidYMid meet">

<g transform="translate(0.000000,94.000000) scale(0.100000,-0.100000)"
fill="#000000" stroke="none">
<path d="M8120 789 c0 -19 -2 -20 -17 -8 -16 13 -17 12 -4 -3 7 -10 11 -18 7
-18 -4 0 1 -11 10 -25 17 -26 7 -34 -15 -12 -10 10 -11 9 -6 -5 4 -10 11 -18
16 -18 5 0 9 -9 9 -21 0 -13 -4 -18 -12 -13 -9 5 -10 4 -3 -4 6 -6 107 -13
258 -17 l247 -7 0 86 0 86 -245 0 c-243 0 -245 0 -245 -21z"/>
<path d="M8710 475 l0 -335 100 0 100 0 0 108 c0 124 9 142 73 142 34 0 41 -7
137 -125 l102 -125 119 0 c65 0 119 2 119 5 0 2 -58 76 -130 162 -71 87 -125
160 -120 161 6 2 10 8 10 13 0 6 -6 7 -12 3 -9 -5 -9 -2 1 9 16 20 25 23 15 5
-13 -23 10 4 122 142 60 74 102 130 94 125 -10 -6 -10 -2 3 12 9 11 17 23 17
26 0 4 -53 7 -119 7 l-118 0 -102 -125 -102 -125 -55 0 -54 0 0 125 0 125
-100 0 -100 0 0 -335z m610 141 c0 -2 -8 -10 -17 -17 -16 -13 -17 -12 -4 4 13
16 21 21 21 13z"/>
<path d="M9560 475 l0 -335 230 0 230 0 -68 84 -67 85 -62 0 -63 1 0 119 c0
69 4 122 10 126 7 4 6 13 -1 27 -23 43 11 3 186 -216 l180 -225 123 -1 c68 0
122 4 120 8 -1 4 -122 155 -268 335 l-265 327 -142 0 -143 0 0 -335z"/>
<path d="M10170 700 l0 -110 110 0 110 0 0 110 0 110 -110 0 -110 0 0 -110z"/>
<path d="M10509 791 l-24 -19 0 -297 0 -297 24 -19 c22 -18 43 -19 361 -19
314 0 338 1 353 18 15 16 17 46 17 210 l0 192 -235 0 -235 0 0 -85 0 -85 135
0 135 0 0 -40 0 -40 -180 0 -180 0 0 148 c0 132 2 151 18 165 16 15 51 17 280
17 l262 0 0 60 c0 51 -4 65 -25 85 l-24 25 -329 0 c-310 0 -331 -1 -353 -19z"/>
<path d="M11330 475 l0 -335 100 0 100 0 0 335 0 335 -100 0 -100 0 0 -335z"/>
<path d="M11620 475 l0 -335 100 0 100 0 0 173 c0 94 4 179 10 187 5 9 5 19
-2 27 -6 8 -9 15 -7 17 2 2 78 -88 169 -200 l165 -203 113 -1 112 0 0 335 0
335 -100 0 -100 0 -2 -190 -3 -191 -155 191 -155 190 -122 0 -123 0 0 -335z"/>
<path d="M12505 785 l-25 -24 0 -286 0 -286 25 -24 24 -25 339 0 c316 0 340 1
355 18 15 16 17 46 17 210 l0 192 -234 0 -234 0 -4 -81 c-2 -44 -1 -83 1 -85
2 -2 64 -4 138 -4 l133 0 0 -40 0 -40 -180 0 -180 0 0 143 c0 113 3 147 16
165 15 22 18 22 280 22 l264 0 0 64 c0 58 -3 67 -26 85 -26 20 -38 21 -356 21
l-329 0 -24 -25z"/>
<path d="M335 630 c4 -6 11 -8 16 -5 14 9 11 15 -7 15 -8 0 -12 -5 -9 -10z"/>
<path d="M1225 630 c4 -6 11 -8 16 -5 14 9 11 15 -7 15 -8 0 -12 -5 -9 -10z"/>
<path d="M2365 630 c4 -6 11 -8 16 -5 14 9 11 15 -7 15 -8 0 -12 -5 -9 -10z"/>
<path d="M4085 630 c4 -6 11 -8 16 -5 14 9 11 15 -7 15 -8 0 -12 -5 -9 -10z"/>
<path d="M4945 630 c4 -6 11 -8 16 -5 14 9 11 15 -7 15 -8 0 -12 -5 -9 -10z"/>
<path d="M6280 630 c0 -5 4 -10 9 -10 6 0 13 5 16 10 3 6 -1 10 -9 10 -9 0
-16 -4 -16 -10z"/>
<path d="M8050 630 c0 -5 4 -10 9 -10 6 0 13 5 16 10 3 6 -1 10 -9 10 -9 0
-16 -4 -16 -10z"/>
<path d="M7130 575 c0 -8 4 -15 10 -15 5 0 7 7 4 15 -4 8 -8 15 -10 15 -2 0
-4 -7 -4 -15z"/>
<path d="M335 380 c4 -6 11 -8 16 -5 14 9 11 15 -7 15 -8 0 -12 -5 -9 -10z"/>
<path d="M2365 380 c4 -6 11 -8 16 -5 14 9 11 15 -7 15 -8 0 -12 -5 -9 -10z"/>
<path d="M8334 303 c-225 -3 -263 -6 -268 -19 -3 -8 -2 -12 4 -9 6 3 10 2 10
-4 0 -5 -5 -13 -10 -16 -8 -5 -8 -11 -1 -19 6 -7 8 -16 4 -19 -3 -4 -8 -23
-10 -42 l-4 -35 276 0 275 0 0 85 c0 47 -3 84 -7 83 -5 -2 -126 -4 -269 -5z"/>
<path d="M6280 290 c0 -5 4 -10 9 -10 6 0 13 5 16 10 3 6 -1 10 -9 10 -9 0
-16 -4 -16 -10z"/>
</g>
</svg>
